<svg width="32" height="32" viewBox="0 0 32 32" fill="none" xmlns="http://www.w3.org/2000/svg">
<rect width="32" height="32" rx="2" fill="#288DFE"/>
<path d="M7.8678 11.152V13.7116L8.9568 14.3464V16.3122L8.40896 16.633L7.11953 15.9777L5.11523 16.9811V18.3121L6.05725 18.7694H6.06393L5.11523 19.1585V20.2983L6.3913 21.1447C6.71199 21.3563 7.12621 21.3631 7.45358 21.1652L8.82318 20.3256C8.97684 20.2301 9.07705 20.0594 9.07705 19.8683V19.4724L11.5891 17.9571C11.7762 17.8479 11.8897 17.6432 11.8897 17.4179V14.0324C11.8831 14.0324 13.0656 13.3362 13.0656 13.3362L13.079 11.1451L10.4667 9.62303L7.87448 11.152H7.8678Z" fill="#073252"/>
<path d="M12.4377 11.2203L10.44 10.0872C10.4133 10.0736 10.3866 10.0736 10.3599 10.0872L8.38898 11.2476C8.33553 11.2817 8.33553 11.3568 8.38898 11.3909L10.42 12.4967C10.4467 12.5103 10.4734 12.5103 10.4935 12.4967L12.4377 11.3636C12.4911 11.3295 12.4911 11.2544 12.4377 11.2203Z" fill="#FC5C21"/>
<path d="M9.77856 17.1655L9.17059 16.7833C9.16391 16.7833 9.15723 16.7833 9.15055 16.7833L8.97016 16.8788V17.6365C8.97016 17.6365 8.98352 17.6365 8.9902 17.6365L9.78524 17.2064C9.7986 17.1996 9.7986 17.1723 9.78524 17.1655H9.77856Z" fill="#FC5C21"/>
<path d="M7.12622 16.4487L8.33548 17.0289C8.38225 17.0494 8.38893 17.1245 8.33548 17.1518L6.76545 18.0186C6.74541 18.0323 6.72536 18.0323 6.70532 18.0186L5.55619 17.3907C5.50943 17.3634 5.50943 17.2951 5.55619 17.2678L7.06609 16.4556C7.08614 16.4487 7.10618 16.4419 7.12622 16.4556V16.4487Z" fill="#FC5C21"/>
<path d="M6.43135 19.0902L6.61174 19.1925C6.77208 19.2813 6.96583 19.2813 7.12618 19.1925L7.38673 19.0424C7.4335 19.0151 7.48695 19.0492 7.48695 19.1038V19.9229C7.48695 19.9502 7.47359 19.9707 7.44686 19.9843L7.02596 20.2096C6.99924 20.2232 6.97251 20.2232 6.94579 20.2096L5.80334 19.5543C5.74321 19.5202 5.74321 19.4314 5.80334 19.4041L6.42467 19.0902H6.43135Z" fill="#FC5C21"/>
<path d="M12.6246 11.6911L10.5001 12.8651V13.2542L12.6179 12.0733L12.6246 11.6911Z" fill="#FC5C21"/>
<path d="M10.5001 14.6535L12.6179 13.459V13.0426L10.5001 14.2849V14.6535Z" fill="#FC5C21"/>
<path d="M12.6179 12.3669L10.5001 13.5682V13.9572L12.6179 12.7218V12.3669Z" fill="#FC5C21"/>
<path d="M10.4667 16.3463L11.5156 15.7251V15.3634L10.4667 15.9845V16.3463Z" fill="#FC5C21"/>
<path d="M10.4667 17.0631L11.5156 16.442V16.0802L10.4667 16.7013V17.0631Z" fill="#FC5C21"/>
<path d="M10.4667 17.8548L11.5156 17.2269V16.8719L10.4667 17.4862V17.8548Z" fill="#FC5C21"/>
<path d="M6.84555 18.7762C6.84555 18.7762 6.84555 18.783 6.84555 18.7898L8.5492 17.7796L8.54921 17.3974L6.84556 18.3939L6.84555 18.7762Z" fill="#FC5C21"/>
<path d="M8.61601 19.6636L7.06602 20.5509C6.97248 20.6055 6.91236 20.7079 6.91236 20.8171V20.9604L8.61601 19.9503V19.6636Z" fill="#FC5C21"/>
<path d="M7.71413 19.0765L8.56262 18.5714V18.2369L7.70745 18.7352L7.71413 19.0765Z" fill="#FC5C21"/>
<path d="M7.73415 19.7385L8.56259 19.2471L8.56258 18.8649L7.72078 19.3563L7.73415 19.7385Z" fill="#FC5C21"/>
<path d="M8.98357 18.3599L10.0392 17.7319V17.4452L8.98357 18.0459V18.3599Z" fill="#FC5C21"/>
<path d="M8.98357 19.0697L10.0392 18.4417V18.0731L8.98357 18.6874V19.0697Z" fill="#FC5C21"/>
<path d="M26.4342 20.4144V10.6264C26.4342 10.0531 26.1336 9.52067 25.6459 9.23399L17.3548 4.34001C16.8671 4.05333 16.2725 4.05333 15.7848 4.34001L7.49366 9.23399C7.00595 9.52067 6.70531 10.0531 6.70531 10.6264V20.4144C6.70531 20.9877 7.00595 21.5201 7.49366 21.8068L15.7848 26.7008C16.2725 26.9875 16.8671 26.9875 17.3548 26.7008L25.6459 21.8068C26.1336 21.5201 26.4342 20.9877 26.4342 20.4144Z" fill="#073252"/>
<path d="M25.9466 20.6942V10.1418C25.9466 10.0053 25.8731 9.87557 25.7595 9.80732L16.8137 4.5311C16.7001 4.46284 16.5531 4.46284 16.4395 4.5311L7.49371 9.80732C7.38013 9.87557 7.30664 10.0053 7.30664 10.1418V20.6942C7.30664 20.8307 7.38013 20.9604 7.49371 21.0287L16.4395 26.3049C16.5531 26.3731 16.7001 26.3731 16.8137 26.3049L25.7595 21.0287C25.8731 20.9604 25.9466 20.8307 25.9466 20.6942Z" fill="#073252"/>
<path d="M8.89672 9.00865L18.4505 14.8582L16.8538 15.766L7.30664 9.99837L8.89672 9.00865Z" fill="#FC5C21"/>
<path d="M17.0875 4.73596L25.706 9.85519C25.9599 10.0054 25.9599 10.3739 25.706 10.5309L18.9048 14.64L9.29753 8.75627L16.0854 4.74279C16.3927 4.5585 16.7735 4.5585 17.0875 4.74279V4.73596Z" fill="#FC5C21"/>
<path d="M18.4505 14.8582L18.4838 25.397L18.9047 25.1172L18.9114 14.6398L18.4505 14.8582Z" fill="#FC5C21"/>
<path d="M16.8603 16.2234L16.847 16.6534L25.8796 11.2953L25.9197 11.2475C25.9865 11.1724 26.0266 11.0769 26.0133 10.9745V10.8994C26.0066 10.8994 25.8796 10.9472 25.8796 10.9472L16.867 16.2234H16.8603Z" fill="#FC5C21"/>
<path d="M16.8603 16.9743L16.847 17.4043L25.8796 12.0462L25.9197 11.9984C25.9865 11.9233 26.0266 11.8277 26.0133 11.7254V11.6503C26.0066 11.6503 25.8796 11.6981 25.8796 11.6981L16.867 16.9743H16.8603Z" fill="#FC5C21"/>
<path d="M16.8603 17.7249L16.847 18.1549L25.8796 12.7968L25.9197 12.749C25.9865 12.6739 26.0266 12.5784 26.0133 12.476V12.4009C26.0066 12.4009 25.8796 12.4487 25.8796 12.4487L16.867 17.7249H16.8603Z" fill="#FC5C21"/>
<path d="M16.8603 18.4758L16.847 18.9058L25.8796 13.5477L25.9197 13.4999C25.9865 13.4248 26.0266 13.3293 26.0133 13.2269V13.1518C26.0066 13.1518 25.8796 13.1996 25.8796 13.1996L16.867 18.4758H16.8603Z" fill="#FC5C21"/>
<path d="M16.8603 19.2267L16.847 19.6567L25.8796 14.2986L25.9197 14.2508C25.9865 14.1757 26.0266 14.0802 26.0133 13.9778V13.9027C26.0066 13.9027 25.8796 13.9505 25.8796 13.9505L16.867 19.2267H16.8603Z" fill="#FC5C21"/>
<path d="M16.8603 19.9776L16.847 20.4076L25.8796 15.0495L25.9197 15.0017C25.9865 14.9266 26.0266 14.831 26.0133 14.7287V14.6536C26.0066 14.6536 25.8796 14.7014 25.8796 14.7014L16.867 19.9776H16.8603Z" fill="#FC5C21"/>
<path d="M16.8603 20.7282L16.847 21.1582L25.8796 15.8001L25.9197 15.7523C25.9865 15.6772 26.0266 15.5817 26.0133 15.4793V15.4042C26.0066 15.4042 25.8796 15.452 25.8796 15.452L16.867 20.7282H16.8603Z" fill="#FC5C21"/>
<path d="M16.8603 21.4791L16.847 21.9091L25.8796 16.551L25.9197 16.5032C25.9865 16.4281 26.0266 16.3326 26.0133 16.2302V16.1551C26.0066 16.1551 25.8796 16.2029 25.8796 16.2029L16.867 21.4791H16.8603Z" fill="#FC5C21"/>
<path d="M16.8603 22.23L16.847 22.66L25.8796 17.3019L25.9197 17.2541C25.9865 17.179 26.0266 17.0834 26.0133 16.9811V16.906C26.0066 16.906 25.8796 16.9538 25.8796 16.9538L16.867 22.23H16.8603Z" fill="#FC5C21"/>
<path d="M16.8603 22.9809L16.847 23.4109L25.8796 18.0528L25.9197 18.005C25.9865 17.9299 26.0266 17.8343 26.0133 17.7319V17.6569C26.0066 17.6569 25.8796 17.7046 25.8796 17.7046L16.867 22.9809H16.8603Z" fill="#FC5C21"/>
<path d="M16.8603 23.7315L16.847 24.1615L25.8796 18.8034L25.9197 18.7556C25.9865 18.6805 26.0266 18.585 26.0133 18.4826V18.4075C26.0066 18.4075 25.8796 18.4553 25.8796 18.4553L16.867 23.7315H16.8603Z" fill="#FC5C21"/>
<path d="M16.8603 24.4824L16.847 24.9124L25.8796 19.5543L25.9197 19.5065C25.9865 19.4314 26.0266 19.3359 26.0133 19.2335V19.1584C26.0066 19.1584 25.8796 19.2062 25.8796 19.2062L16.867 24.4824H16.8603Z" fill="#FC5C21"/>
<path d="M16.8603 25.2333L16.847 25.6633L25.8796 20.3052L25.9197 20.2574C25.9865 20.1823 26.0266 20.0867 26.0133 19.9844V19.9093C26.0066 19.9093 25.8796 19.9571 25.8796 19.9571L16.867 25.2333H16.8603Z" fill="#FC5C21"/>
<path d="M16.8603 25.9839L16.847 26.4139L25.8796 21.0558L25.9197 21.008C25.9865 20.9329 26.0266 20.8374 26.0133 20.735V20.6599C26.0066 20.6599 25.8796 20.7077 25.8796 20.7077L16.867 25.9839H16.8603Z" fill="#FC5C21"/>
<path d="M16.2257 20.1344L7.25313 14.865V15.2131L16.2791 20.6122C16.386 20.6804 16.5263 20.6804 16.6332 20.6122L25.873 15.0493V14.7012L16.6199 20.1344C16.4996 20.2095 16.3459 20.2095 16.2257 20.1344Z" fill="#FC5C21"/>
<path d="M12.7649 13.8208V14.2098L14.4218 15.2951V14.8788L12.7649 13.8208Z" fill="#FC5C21"/>
<path d="M8.76299 11.5273V11.9164L10.4199 12.9129L10.42 12.4967L8.76299 11.5273Z" fill="#FC5C21"/>
<path d="M15.6511 16.3188C15.6912 16.3188 15.7981 16.2847 15.7981 16.155C15.7981 16.0253 15.611 15.9434 15.611 15.9434C15.611 15.9434 15.2302 15.8957 15.0632 16.2779C14.8962 16.6601 14.8694 18.1072 15.1634 18.3324C15.4574 18.5577 15.4306 18.5099 15.5709 18.5235C15.7112 18.5372 15.905 18.2027 15.5643 18.1822C15.2035 18.0457 15.3104 16.3735 15.6511 16.3188Z" fill="#FC5C21"/>
<path d="M15.6511 21.4791C15.6912 21.4791 15.7981 21.445 15.7981 21.3153C15.7981 21.1856 15.611 21.1037 15.611 21.1037C15.611 21.1037 15.2302 21.0559 15.0632 21.4382C14.8962 21.8204 14.8694 23.2674 15.1634 23.4927C15.4574 23.7179 15.4306 23.6702 15.5709 23.6838C15.7112 23.6975 15.905 23.363 15.5643 23.3425C15.2035 23.206 15.3104 21.5337 15.6511 21.4791Z" fill="#FC5C21"/>
<path d="M13.5332 14.9947L12.8985 15.3496V16.51L13.4798 17.4519L14.2214 17.2335V15.9844L13.5265 14.9947H13.5332ZM13.9408 16.8922L13.4798 17.0287L13.119 16.4486V15.7319L13.5065 15.5135L13.9341 16.1209V16.8922H13.9408Z" fill="#FC5C21"/>
<path d="M9.53805 12.6536L8.90336 13.0086V14.1689L9.48461 15.1109L10.2262 14.8924V13.6433L9.53137 12.6536H9.53805ZM9.94559 14.5443L9.48461 14.6808L9.12383 14.1007V13.384L9.51133 13.1656L9.93891 13.773V14.5443H9.94559Z" fill="#FC5C21"/>
<path d="M18.2166 8.49679C17.9294 8.44219 17.6688 8.39441 17.4149 8.33298C17.2546 8.29885 17.121 8.3125 16.994 8.38075C16.66 8.56505 16.3192 8.74251 15.9852 8.91998C15.885 8.97459 15.8516 9.02919 15.885 9.1111C15.9317 9.21348 15.9718 9.32269 16.0119 9.42508C16.0453 9.50699 15.9919 9.53429 15.8516 9.50699C15.591 9.46603 15.3305 9.42508 15.0766 9.3773C14.9296 9.35 14.8227 9.3773 14.7225 9.4319C14.3283 9.65032 13.9475 9.86192 13.5867 10.0667C13.4331 10.1554 13.2861 10.1418 13.1191 10.0394C12.7249 9.80049 12.3441 9.56842 11.9833 9.36365C11.8497 9.28856 11.843 9.18618 11.9699 9.1111C12.5779 8.73569 13.1925 8.3671 13.8072 8.00534C13.8807 7.95757 13.9408 7.95074 14.041 7.97122C14.6557 8.08043 15.2703 8.19646 15.8783 8.31932C15.9652 8.3398 16.0453 8.3671 16.1389 8.31932C16.2324 8.27154 16.1856 8.21694 16.1522 8.16233C15.9451 7.80058 15.738 7.45247 15.4975 7.10436C15.4574 7.04293 15.4708 7.0088 15.5509 6.96102C16.1389 6.62656 16.7268 6.29211 17.3147 5.95765C17.455 5.87574 17.5886 5.88257 17.7757 5.9713C18.2701 6.21703 18.7378 6.46958 19.1854 6.7153C19.3324 6.79721 19.339 6.85864 19.1921 6.94054C18.8112 7.15214 18.4104 7.37056 18.0028 7.59581C17.8826 7.66406 17.8492 7.72549 17.896 7.82105C18.0095 8.03947 18.1031 8.25789 18.2166 8.50362V8.49679Z" fill="#073252"/>
<path d="M17.0342 10.1623C17.2814 10.2101 17.5018 10.251 17.7223 10.292C17.8693 10.3261 17.9829 10.3124 18.0898 10.2442C18.3904 10.0599 18.7111 9.86878 19.0251 9.68449C19.1387 9.61623 19.1788 9.54115 19.132 9.44559C19.0585 9.2886 18.9917 9.12478 18.9249 8.96779C18.9917 8.94049 19.0451 8.9678 19.0919 8.98145C19.3992 9.04288 19.7132 9.10431 20.0139 9.16574C20.1675 9.19987 20.2811 9.17939 20.3947 9.10431C20.7755 8.86541 21.1697 8.62651 21.5572 8.38761C21.7108 8.29206 21.8445 8.28523 21.9848 8.36714C22.3723 8.59921 22.7598 8.82446 23.1539 9.03605C23.2742 9.10431 23.2542 9.17939 23.1539 9.25447C22.5527 9.69814 21.9514 10.135 21.3434 10.565C21.2766 10.6128 21.2165 10.5991 21.143 10.5855C20.5484 10.4694 19.9604 10.3397 19.3591 10.1964C19.2723 10.1759 19.1788 10.1418 19.0919 10.1964C19.0051 10.2442 19.0585 10.3056 19.0919 10.3602C19.2857 10.7288 19.4928 11.1042 19.7266 11.4728C19.7667 11.5411 19.7667 11.582 19.6865 11.6366C19.0986 12.012 18.5173 12.3874 17.9294 12.756C17.7891 12.8448 17.6355 12.8311 17.4484 12.7219C16.9874 12.4489 16.5331 12.169 16.0788 11.8823C15.9118 11.78 15.8917 11.6844 16.032 11.6025C16.3794 11.4045 16.7402 11.193 17.1277 10.9814C17.268 10.9063 17.2947 10.8244 17.2413 10.7083C17.1611 10.5309 17.0943 10.3534 17.0275 10.1555L17.0342 10.1623Z" fill="#073252"/>
<path d="M17.7958 10.0394C17.3147 9.93703 17.0742 9.88925 16.5932 9.78687C16.4729 9.49336 16.4195 9.3432 16.3059 9.05652C16.6734 8.85858 16.8671 8.76302 17.2412 8.56508C17.7223 8.66064 17.9628 8.70841 18.4371 8.79715C18.5373 9.09065 18.5908 9.24081 18.6977 9.53432C18.3302 9.73909 18.1499 9.84147 17.7891 10.0394H17.7958Z" fill="#073252"/>
<path d="M18.9048 17.7183V20.278L19.9938 20.9127V22.8785L19.446 23.1993L18.1565 22.5441L16.1522 23.5474V26.8647L17.4283 27.7111C17.749 27.9227 18.1632 27.9295 18.4906 27.7316L19.8602 26.892C20.0139 26.7964 20.1141 26.6258 20.1141 26.4347V26.0388L22.6261 24.5235C22.8132 24.4143 22.9268 24.2095 22.9268 23.9843V20.5988C22.9201 20.5988 24.1026 19.9026 24.1026 19.9026L24.116 17.7115L21.5037 16.1894L18.9115 17.7183H18.9048Z" fill="#073252"/>
<path d="M23.4747 17.7934L21.4771 16.6604C21.4503 16.6467 21.4236 16.6467 21.3969 16.6604L19.426 17.8207C19.3725 17.8549 19.3725 17.9299 19.426 17.9641L21.457 19.0698C21.4837 19.0835 21.5105 19.0835 21.5305 19.0698L23.4747 17.9368C23.5281 17.9026 23.5281 17.8276 23.4747 17.7934Z" fill="#FC5C21"/>
<path d="M20.8222 23.7386L20.2142 23.3564C20.2076 23.3564 20.2009 23.3564 20.1942 23.3564L20.0138 23.452V24.2096C20.0138 24.2096 20.0272 24.2096 20.0339 24.2096L20.8289 23.7796C20.8423 23.7728 20.8423 23.7455 20.8289 23.7386H20.8222Z" fill="#FC5C21"/>
<path d="M18.1632 23.0219L19.3725 23.602C19.4193 23.6225 19.4259 23.6976 19.3725 23.7249L17.8025 24.5918C17.7824 24.6054 17.7624 24.6054 17.7423 24.5918L16.5932 23.9638C16.5464 23.9365 16.5464 23.8682 16.5932 23.8409L18.1031 23.0287C18.1231 23.0219 18.1432 23.015 18.1632 23.0287V23.0219Z" fill="#FC5C21"/>
<path d="M17.4684 25.6633L17.6488 25.7657C17.8091 25.8544 18.0028 25.8544 18.1632 25.7657L18.4237 25.6155C18.4705 25.5882 18.524 25.6223 18.524 25.6769V26.496C18.524 26.5233 18.5106 26.5438 18.4839 26.5575L18.063 26.7827C18.0363 26.7964 18.0095 26.7964 17.9828 26.7827L16.8404 26.1274C16.7802 26.0933 16.7802 26.0046 16.8404 25.9773L17.4617 25.6633H17.4684Z" fill="#FC5C21"/>
<path d="M23.6616 18.2575L21.5371 19.4315V19.8206L23.6616 18.6397V18.2575Z" fill="#FC5C21"/>
<path d="M21.5371 21.2266L23.6616 20.0321V19.6157L21.5371 20.858V21.2266Z" fill="#FC5C21"/>
<path d="M23.6616 18.94L21.5371 20.1413V20.5235L23.6616 19.2949V18.94Z" fill="#FC5C21"/>
<path d="M21.5037 22.9194L22.5593 22.2915V21.9365L21.5037 22.5508V22.9194Z" fill="#FC5C21"/>
<path d="M21.5037 23.6362L22.5593 23.0083V22.6533L21.5037 23.2677V23.6362Z" fill="#FC5C21"/>
<path d="M21.5037 24.4279L22.5593 23.8V23.4451L21.5037 24.0594V24.4279Z" fill="#FC5C21"/>
<path d="M17.8826 25.3493C17.8826 25.3493 17.8826 25.3561 17.8826 25.363L19.5862 24.3528V23.9705L17.8826 24.9671V25.3493Z" fill="#FC5C21"/>
<path d="M19.6531 26.2367L18.1032 27.124C18.0096 27.1787 17.9495 27.281 17.9495 27.3902V27.5336L19.6531 26.5234V26.2367Z" fill="#FC5C21"/>
<path d="M18.7511 25.6496L19.5996 25.1445V24.8101L18.7445 25.3084L18.7511 25.6496Z" fill="#FC5C21"/>
<path d="M18.7712 26.3117L19.5996 25.8134L19.5996 25.4313L18.7578 25.9227L18.7712 26.3117Z" fill="#FC5C21"/>
<path d="M20.0206 24.933L21.0762 24.305V24.0184L20.0206 24.619V24.933Z" fill="#FC5C21"/>
<path d="M20.0206 25.6428L21.0762 25.0149V24.6463L20.0206 25.2606V25.6428Z" fill="#FC5C21"/>
</svg>
