<svg width="209" height="48" viewBox="0 0 209 48" fill="none" xmlns="http://www.w3.org/2000/svg">
<path d="M7.56308 14.2019V19.375L9.764 20.6579V24.6309L8.65679 25.2793L6.05078 23.9549L2 25.9828V28.6728L3.90387 29.5971H3.91737L2 30.3834V32.6872L4.579 34.3978C5.22712 34.8254 6.06429 34.8392 6.72591 34.4391L9.49395 32.7424C9.80451 32.5492 10.007 32.2043 10.007 31.8181V31.018L15.084 27.9555C15.4621 27.7348 15.6916 27.3209 15.6916 26.8657V20.0234C15.6781 20.0234 18.0681 18.6163 18.0681 18.6163L18.0951 14.1881L12.8156 11.1118L7.57658 14.2019H7.56308Z" fill="white"/>
<path d="M16.799 14.34L12.7617 12.05C12.7077 12.0224 12.6537 12.0224 12.5997 12.05L8.61642 14.3951C8.5084 14.4641 8.5084 14.6159 8.61642 14.6848L12.7212 16.9196C12.7752 16.9472 12.8292 16.9472 12.8697 16.9196L16.799 14.6297C16.907 14.5607 16.907 14.4089 16.799 14.34Z" fill="#288DFE"/>
<path d="M11.4248 26.3555L10.1961 25.583C10.1826 25.583 10.1691 25.583 10.1556 25.583L9.79102 25.7761V27.3074C9.79102 27.3074 9.81802 27.3074 9.83152 27.3074L11.4383 26.4383C11.4653 26.4245 11.4653 26.3693 11.4383 26.3555H11.4248Z" fill="#288DFE"/>
<path d="M6.06432 24.9069L8.50829 26.0795C8.60281 26.1209 8.61631 26.2726 8.50829 26.3278L5.33517 28.0798C5.29467 28.1074 5.25416 28.1074 5.21365 28.0798L2.8912 26.8106C2.79668 26.7554 2.79668 26.6175 2.8912 26.5623L5.94279 24.9207C5.9833 24.9069 6.02381 24.8931 6.06432 24.9207V24.9069Z" fill="#288DFE"/>
<path d="M4.65995 30.2454L5.02452 30.4523C5.34858 30.6316 5.74016 30.6316 6.06422 30.4523L6.59082 30.1488C6.68534 30.0936 6.79336 30.1626 6.79336 30.273V31.9284C6.79336 31.9835 6.76636 32.0249 6.71235 32.0525L5.86168 32.5078C5.80767 32.5353 5.75366 32.5353 5.69965 32.5078L3.3907 31.1834C3.26918 31.1145 3.26918 30.9351 3.3907 30.8799L4.64645 30.2454H4.65995Z" fill="#288DFE"/>
<path d="M17.1769 15.2915L12.8831 17.6642V18.4506L17.1634 16.064L17.1769 15.2915Z" fill="#288DFE"/>
<path d="M12.8831 21.2786L17.1634 18.8644V18.0229L12.8831 20.5336V21.2786Z" fill="#288DFE"/>
<path d="M17.1634 16.6572L12.8831 19.0851V19.8715L17.1634 17.3746V16.6572Z" fill="#288DFE"/>
<path d="M12.8157 24.6999L14.9356 23.4445V22.7134L12.8157 23.9687V24.6999Z" fill="#288DFE"/>
<path d="M12.8157 26.1486L14.9356 24.8932V24.1621L12.8157 25.4175V26.1486Z" fill="#288DFE"/>
<path d="M12.8157 27.7487L14.9356 26.4795V25.7622L12.8157 27.0038V27.7487Z" fill="#288DFE"/>
<path d="M5.49707 29.6108C5.49707 29.6108 5.49707 29.6245 5.49707 29.6383L8.94024 27.5967L8.94025 26.8242L5.49708 28.8383L5.49707 29.6108Z" fill="#288DFE"/>
<path d="M9.07525 31.4043L5.94264 33.1976C5.7536 33.308 5.63208 33.5149 5.63208 33.7356V34.0253L9.07525 31.9837V31.4043Z" fill="#288DFE"/>
<path d="M7.25252 30.2178L8.96735 29.1969V28.521L7.23901 29.528L7.25252 30.2178Z" fill="#288DFE"/>
<path d="M7.29297 31.5557L8.96729 30.5625L8.96727 29.7901L7.26594 30.7833L7.29297 31.5557Z" fill="#288DFE"/>
<path d="M9.81812 28.7694L11.9515 27.5003V26.9209L9.81812 28.1349V28.7694Z" fill="#288DFE"/>
<path d="M9.81812 30.204L11.9515 28.9349V28.1899L9.81812 29.4315V30.204Z" fill="#288DFE"/>
<path d="M45.0868 32.9217V13.1397C45.0868 11.9809 44.4792 10.9049 43.4935 10.3255L26.7368 0.434542C25.7511 -0.144847 24.5494 -0.144847 23.5637 0.434542L6.80693 10.3255C5.82124 10.9049 5.21362 11.9809 5.21362 13.1397V32.9217C5.21362 34.0805 5.82124 35.1565 6.80693 35.7359L23.5637 45.6269C24.5494 46.2063 25.7511 46.2063 26.7368 45.6269L43.4935 35.7359C44.4792 35.1565 45.0868 34.0805 45.0868 32.9217Z" fill="white"/>
<path d="M44.1012 33.4873V12.1602C44.1012 11.8843 43.9527 11.6222 43.7232 11.4843L25.6432 0.820748C25.4136 0.682798 25.1166 0.682798 24.887 0.820748L6.80703 11.4843C6.57748 11.6222 6.42896 11.8843 6.42896 12.1602V33.4873C6.42896 33.7632 6.57748 34.0253 6.80703 34.1632L24.887 44.8268C25.1166 44.9647 25.4136 44.9647 25.6432 44.8268L43.7232 34.1632C43.9527 34.0253 44.1012 33.7632 44.1012 33.4873Z" fill="white"/>
<path d="M9.64258 9.87012L28.9513 21.6924L25.7242 23.5272L6.42896 11.8704L9.64258 9.87012Z" fill="#288DFE"/>
<path d="M26.1967 1.23479L43.6151 11.581C44.1282 11.8845 44.1282 12.6294 43.6151 12.9467L29.8694 21.2513L10.4526 9.36004L24.1713 1.24859C24.7924 0.876122 25.5621 0.876122 26.1967 1.24859V1.23479Z" fill="#288DFE"/>
<path d="M28.9513 21.6924L29.0187 42.9919L29.8693 42.4263L29.8829 21.251L28.9513 21.6924Z" fill="#288DFE"/>
<path d="M25.7375 24.4515L25.7104 25.3206L43.966 14.4915L44.047 14.395C44.182 14.2432 44.263 14.0501 44.236 13.8432V13.6914C44.2225 13.6914 43.966 13.788 43.966 13.788L25.751 24.4515H25.7375Z" fill="#288DFE"/>
<path d="M25.7375 25.9691L25.7104 26.8382L43.966 16.0091L44.047 15.9125C44.182 15.7608 44.263 15.5677 44.236 15.3607V15.209C44.2225 15.209 43.966 15.3055 43.966 15.3055L25.751 25.9691H25.7375Z" fill="#288DFE"/>
<path d="M25.7375 27.4862L25.7104 28.3552L43.966 17.5262L44.047 17.4296C44.182 17.2779 44.263 17.0847 44.236 16.8778V16.7261C44.2225 16.7261 43.966 16.8226 43.966 16.8226L25.751 27.4862H25.7375Z" fill="#288DFE"/>
<path d="M25.7375 29.0037L25.7104 29.8728L43.966 19.0438L44.047 18.9472C44.182 18.7955 44.263 18.6023 44.236 18.3954V18.2437C44.2225 18.2437 43.966 18.3402 43.966 18.3402L25.751 29.0037H25.7375Z" fill="#288DFE"/>
<path d="M25.7375 30.5213L25.7104 31.3904L43.966 20.5613L44.047 20.4648C44.182 20.313 44.263 20.1199 44.236 19.913V19.7612C44.2225 19.7612 43.966 19.8578 43.966 19.8578L25.751 30.5213H25.7375Z" fill="#288DFE"/>
<path d="M25.7375 32.0389L25.7104 32.908L43.966 22.0789L44.047 21.9824C44.182 21.8306 44.263 21.6375 44.236 21.4306V21.2788C44.2225 21.2788 43.966 21.3754 43.966 21.3754L25.751 32.0389H25.7375Z" fill="#288DFE"/>
<path d="M25.7375 33.556L25.7104 34.4251L43.966 23.596L44.047 23.4994C44.182 23.3477 44.263 23.1546 44.236 22.9476V22.7959C44.2225 22.7959 43.966 22.8925 43.966 22.8925L25.751 33.556H25.7375Z" fill="#288DFE"/>
<path d="M25.7375 35.0736L25.7104 35.9426L43.966 25.1136L44.047 25.017C44.182 24.8653 44.263 24.6721 44.236 24.4652V24.3135C44.2225 24.3135 43.966 24.41 43.966 24.41L25.751 35.0736H25.7375Z" fill="#288DFE"/>
<path d="M25.7375 36.5911L25.7104 37.4602L43.966 26.6312L44.047 26.5346C44.182 26.3829 44.263 26.1897 44.236 25.9828V25.8311C44.2225 25.8311 43.966 25.9276 43.966 25.9276L25.751 36.5911H25.7375Z" fill="#288DFE"/>
<path d="M25.7375 38.1087L25.7104 38.9778L43.966 28.1487L44.047 28.0522C44.182 27.9004 44.263 27.7073 44.236 27.5004V27.3486C44.2225 27.3486 43.966 27.4452 43.966 27.4452L25.751 38.1087H25.7375Z" fill="#288DFE"/>
<path d="M25.7375 39.6258L25.7104 40.4949L43.966 29.6658L44.047 29.5693C44.182 29.4175 44.263 29.2244 44.236 29.0175V28.8657C44.2225 28.8657 43.966 28.9623 43.966 28.9623L25.751 39.6258H25.7375Z" fill="#288DFE"/>
<path d="M25.7375 41.1434L25.7104 42.0125L43.966 31.1834L44.047 31.0868C44.182 30.9351 44.263 30.742 44.236 30.535V30.3833C44.2225 30.3833 43.966 30.4799 43.966 30.4799L25.751 41.1434H25.7375Z" fill="#288DFE"/>
<path d="M25.7375 42.661L25.7104 43.53L43.966 32.701L44.047 32.6044C44.182 32.4527 44.263 32.2595 44.236 32.0526V31.9009C44.2225 31.9009 43.966 31.9974 43.966 31.9974L25.751 42.661H25.7375Z" fill="#288DFE"/>
<path d="M25.7375 44.1781L25.7104 45.0471L43.966 34.2181L44.047 34.1215C44.182 33.9698 44.263 33.7766 44.236 33.5697V33.418C44.2225 33.418 43.966 33.5145 43.966 33.5145L25.751 44.1781H25.7375Z" fill="#288DFE"/>
<path d="M24.4548 32.3558L6.3208 21.7061V22.4096L24.5628 33.3215C24.7789 33.4594 25.0624 33.4594 25.2785 33.3215L43.9526 22.0785V21.375L25.2515 32.3558C25.0084 32.5076 24.6979 32.5076 24.4548 32.3558Z" fill="#288DFE"/>
<path d="M17.4604 19.5957V20.382L20.8091 22.5754V21.7339L17.4604 19.5957Z" fill="#288DFE"/>
<path d="M9.37231 14.9604V15.7468L12.721 17.7608L12.7212 16.9196L9.37231 14.9604Z" fill="#288DFE"/>
<path d="M23.2936 24.6444C23.3746 24.6444 23.5906 24.5754 23.5906 24.3133C23.5906 24.0512 23.2125 23.8857 23.2125 23.8857C23.2125 23.8857 22.4429 23.7891 22.1053 24.5617C21.7678 25.3342 21.7138 28.2587 22.3079 28.7139C22.902 29.1692 22.848 29.0726 23.1315 29.1002C23.4151 29.1278 23.8067 28.4518 23.118 28.4105C22.3889 28.1346 22.6049 24.7548 23.2936 24.6444Z" fill="#288DFE"/>
<path d="M23.2936 35.0736C23.3746 35.0736 23.5906 35.0046 23.5906 34.7425C23.5906 34.4804 23.2125 34.3149 23.2125 34.3149C23.2125 34.3149 22.4429 34.2183 22.1053 34.9909C21.7678 35.7634 21.7138 38.6879 22.3079 39.1431C22.902 39.5984 22.848 39.5018 23.1315 39.5294C23.4151 39.557 23.8067 38.881 23.118 38.8397C22.3889 38.5638 22.6049 35.184 23.2936 35.0736Z" fill="#288DFE"/>
<path d="M19.0132 21.9683L17.7305 22.6856V25.0307L18.9052 26.9345L20.404 26.493V23.9685L18.9997 21.9683H19.0132ZM19.8369 25.8033L18.9052 26.0792L18.1761 24.9066V23.4581L18.9592 23.0167L19.8234 24.2444V25.8033H19.8369Z" fill="#288DFE"/>
<path d="M10.9388 17.2368L9.65601 17.9542V20.2993L10.8307 22.203L12.3295 21.7616V19.2371L10.9253 17.2368H10.9388ZM11.7624 21.058L10.8307 21.3339L10.1016 20.1614V18.7129L10.8847 18.2714L11.7489 19.4992V21.058H11.7624Z" fill="#288DFE"/>
<path d="M28.4786 8.83562C27.898 8.72526 27.3714 8.6287 26.8583 8.50454C26.5343 8.43557 26.2642 8.46316 26.0077 8.60111C25.3325 8.97357 24.6439 9.33224 23.9688 9.69091C23.7662 9.80127 23.6987 9.91163 23.7662 10.0772C23.8608 10.2841 23.9418 10.5048 24.0228 10.7117C24.0903 10.8773 23.9823 10.9325 23.6987 10.8773C23.1721 10.7945 22.6455 10.7117 22.1324 10.6152C21.8354 10.56 21.6193 10.6152 21.4168 10.7255C20.6201 11.167 19.8505 11.5946 19.1213 12.0085C18.8108 12.1878 18.5137 12.1602 18.1761 11.9533C17.3795 11.4705 16.6098 11.0014 15.8807 10.5876C15.6107 10.4358 15.5971 10.2289 15.8537 10.0772C17.0824 9.31845 18.3247 8.57352 19.5669 7.84239C19.7154 7.74582 19.837 7.73203 20.0395 7.77341C21.2818 7.99413 22.524 8.22864 23.7527 8.47695C23.9283 8.51834 24.0903 8.57352 24.2793 8.47695C24.4684 8.38039 24.3739 8.27003 24.3063 8.15967C23.8878 7.42854 23.4692 6.72499 22.9831 6.02145C22.9021 5.89729 22.9291 5.82832 23.0911 5.73175C24.2793 5.0558 25.4676 4.37984 26.6558 3.70389C26.9393 3.53835 27.2094 3.55214 27.5875 3.73148C28.5867 4.2281 29.5318 4.73851 30.4365 5.23513C30.7336 5.40067 30.7471 5.52483 30.45 5.69037C29.6804 6.11801 28.8702 6.55945 28.0466 7.01469C27.8035 7.15264 27.736 7.27679 27.8305 7.46992C28.0601 7.91136 28.2491 8.3528 28.4786 8.84942V8.83562Z" fill="white"/>
<path d="M26.0888 12.2017C26.5884 12.2982 27.034 12.381 27.4796 12.4638C27.7766 12.5328 28.0062 12.5052 28.2222 12.3672C28.8298 11.9947 29.478 11.6085 30.1126 11.236C30.3421 11.0981 30.4231 10.9463 30.3286 10.7532C30.1801 10.4359 30.0451 10.1048 29.91 9.78755C30.0451 9.73237 30.1531 9.78755 30.2476 9.81514C30.8687 9.93929 31.5033 10.0634 32.111 10.1876C32.4215 10.2566 32.6511 10.2152 32.8806 10.0634C33.6503 9.58062 34.4469 9.0978 35.2301 8.61497C35.5406 8.42184 35.8107 8.40805 36.0942 8.57359C36.8774 9.04262 37.6605 9.49785 38.4572 9.9255C38.7002 10.0634 38.6597 10.2152 38.4572 10.3669C37.242 11.2636 36.0267 12.1465 34.798 13.0156C34.663 13.1121 34.5414 13.0845 34.3929 13.057C33.1912 12.8224 32.0029 12.5603 30.7877 12.2706C30.6122 12.2293 30.4231 12.1603 30.2476 12.2706C30.0721 12.3672 30.1801 12.4914 30.2476 12.6017C30.6392 13.3467 31.0578 14.1054 31.5304 14.8503C31.6114 14.9883 31.6114 15.071 31.4493 15.1814C30.2611 15.9401 29.0864 16.6988 27.8982 17.4438C27.6146 17.6231 27.304 17.5955 26.926 17.3748C25.9943 16.823 25.0761 16.2574 24.1579 15.678C23.8204 15.4711 23.7799 15.278 24.0634 15.1124C24.7655 14.7124 25.4947 14.2847 26.2778 13.8571C26.5614 13.7053 26.6154 13.5398 26.5074 13.3053C26.3454 12.9466 26.2103 12.5879 26.0753 12.1879L26.0888 12.2017Z" fill="white"/>
<path d="M27.628 11.9534C26.6558 11.7464 26.1697 11.6499 25.1976 11.4429C24.9545 10.8497 24.8465 10.5463 24.6169 9.96687C25.3596 9.56682 25.7512 9.37369 26.5073 8.97363C27.4795 9.16676 27.9656 9.26333 28.9243 9.44266C29.1268 10.0358 29.2348 10.3393 29.4509 10.9325C28.7082 11.3464 28.3437 11.5533 27.6145 11.9534H27.628Z" fill="white"/>
<path d="M29.8695 27.4729V32.646L32.0704 33.9289V37.9019L30.9632 38.5503L28.3572 37.2259L24.3064 39.2538V45.9582L26.8854 47.6687C27.5335 48.0964 28.3707 48.1102 29.0323 47.7101L31.8003 46.0133C32.1109 45.8202 32.3134 45.4753 32.3134 45.0891V44.289L37.3904 41.2265C37.7685 41.0058 37.998 40.5919 37.998 40.1367V33.2944C37.9845 33.2944 40.3745 31.8873 40.3745 31.8873L40.4015 27.4591L35.122 24.3828L29.883 27.4729H29.8695Z" fill="white"/>
<path d="M39.1054 27.6246L35.0681 25.3347C35.0141 25.3071 34.9601 25.3071 34.9061 25.3347L30.9228 27.6798C30.8148 27.7488 30.8148 27.9005 30.9228 27.9695L35.0276 30.2043C35.0816 30.2319 35.1356 30.2319 35.1761 30.2043L39.1054 27.9143C39.2134 27.8453 39.2134 27.6936 39.1054 27.6246Z" fill="#288DFE"/>
<path d="M33.7447 39.6402L32.5159 38.8677C32.5024 38.8677 32.4889 38.8677 32.4754 38.8677L32.1108 39.0608V40.592C32.1108 40.592 32.1378 40.592 32.1514 40.592L33.7582 39.723C33.7852 39.7092 33.7852 39.654 33.7582 39.6402H33.7447Z" fill="#288DFE"/>
<path d="M28.3707 38.1916L30.8147 39.3642C30.9092 39.4055 30.9227 39.5573 30.8147 39.6125L27.6416 41.3644C27.6011 41.392 27.5606 41.392 27.52 41.3644L25.1976 40.0953C25.1031 40.0401 25.1031 39.9022 25.1976 39.847L28.2492 38.2054C28.2897 38.1916 28.3302 38.1778 28.3707 38.2054V38.1916Z" fill="#288DFE"/>
<path d="M26.9663 43.53L27.3309 43.737C27.655 43.9163 28.0466 43.9163 28.3706 43.737L28.8972 43.4335C28.9917 43.3783 29.0998 43.4473 29.0998 43.5576V45.213C29.0998 45.2682 29.0728 45.3096 29.0187 45.3372L28.1681 45.7924C28.1141 45.82 28.0601 45.82 28.006 45.7924L25.6971 44.4681C25.5756 44.3991 25.5756 44.2198 25.6971 44.1646L26.9528 43.53H26.9663Z" fill="#288DFE"/>
<path d="M39.4833 28.5625L35.1895 30.9352V31.7216L39.4833 29.335V28.5625Z" fill="#288DFE"/>
<path d="M35.1895 34.5632L39.4833 32.1491V31.3076L35.1895 33.8183V34.5632Z" fill="#288DFE"/>
<path d="M39.4833 29.9419L35.1895 32.3698V33.1423L39.4833 30.6592V29.9419Z" fill="#288DFE"/>
<path d="M35.1221 37.9845L37.2555 36.7154V35.998L35.1221 37.2396V37.9845Z" fill="#288DFE"/>
<path d="M35.1221 39.4333L37.2555 38.1641V37.4468L35.1221 38.6883V39.4333Z" fill="#288DFE"/>
<path d="M35.1221 41.0334L37.2555 39.7642V39.0469L35.1221 40.2884V41.0334Z" fill="#288DFE"/>
<path d="M27.8035 42.8955C27.8035 42.8955 27.8035 42.9093 27.8035 42.9231L31.2466 40.8814V40.1089L27.8035 42.123V42.8955Z" fill="#288DFE"/>
<path d="M31.3819 44.689L28.2493 46.4823C28.0602 46.5927 27.9387 46.7996 27.9387 47.0203V47.31L31.3819 45.2684V44.689Z" fill="#288DFE"/>
<path d="M29.5589 43.5024L31.2737 42.4816V41.8057L29.5454 42.8127L29.5589 43.5024Z" fill="#288DFE"/>
<path d="M29.5994 44.8405L31.2737 43.8335L31.2737 43.0611L29.5723 44.0543L29.5994 44.8405Z" fill="#288DFE"/>
<path d="M32.1245 42.0541L34.2579 40.785V40.2056L32.1245 41.4195V42.0541Z" fill="#288DFE"/>
<path d="M32.1245 43.4887L34.2579 42.2195V41.4746L32.1245 42.7162V43.4887Z" fill="#288DFE"/>
<mask id="path-2-outside-1_517_52463" maskUnits="userSpaceOnUse" x="62" y="5.84082" width="147" height="37" fill="black">
<rect fill="white" x="62" y="5.84082" width="147" height="37"/>
<path d="M63 24.0088C63 18.9404 63 13.8733 63 8.80488C63 7.88247 63.341 7.53397 64.2557 7.53121C66.2163 7.52567 68.1783 7.55057 70.1389 7.51461C70.852 7.50217 71.2174 7.87694 71.4596 8.46607C71.6071 8.82563 71.7004 9.20731 71.8222 9.57794C72.0617 10.3012 72.377 10.3966 72.9331 9.87803C74.1874 8.70946 75.6095 7.83269 77.2535 7.40674C81.279 6.3654 85.1421 6.67241 88.6114 9.19763C91.2594 11.1254 92.53 13.9286 93.0469 17.1343C93.2187 18.2033 93.2837 19.2833 93.2837 20.3675C93.2837 26.6101 93.285 32.8526 93.2837 39.0951C93.2837 40.0895 92.9292 40.4449 91.9428 40.4449C89.8008 40.4476 87.6589 40.4476 85.5183 40.4449C84.6374 40.4449 84.249 40.0563 84.249 39.167C84.249 33.0393 84.2463 26.9129 84.2504 20.7852C84.2504 19.9748 84.1828 19.1741 83.9838 18.3913C83.4818 16.4151 82.2884 15.147 80.2736 14.8801C77.6933 14.5399 75.301 14.934 73.5853 17.1979C72.542 18.5739 72.1226 20.2196 72.0901 21.9192C72.0197 25.6033 72.0373 29.2888 72.0252 32.9743C72.0184 35.0473 72.0252 37.1203 72.0225 39.1933C72.0211 40.048 71.6274 40.4421 70.7884 40.4435C68.6248 40.4435 66.4599 40.4449 64.2963 40.4435C63.345 40.4435 63 40.0936 63 39.138C63 34.0931 63 29.0482 63 24.0032V24.0088Z"/>
<path d="M116.365 27.2753C113.254 27.2753 110.142 27.2753 107.031 27.2753C106.016 27.2753 105.655 27.7496 105.9 28.7592C106.486 31.1821 108.658 32.9591 111.291 33.1472C112.606 33.2412 113.904 33.179 115.136 32.6148C115.745 32.3368 116.259 31.9523 116.635 31.3743C116.999 30.8142 117.447 30.5044 118.193 30.5279C120.264 30.5943 122.34 30.5501 124.414 30.5528C125.523 30.5542 125.854 30.9801 125.577 32.0464C124.517 36.1371 121.982 38.878 118.085 40.1669C113.718 41.6107 109.319 41.5028 105.061 39.6871C100.8 37.8699 98.1765 34.4873 96.956 30.0149C95.4649 24.5509 95.7653 19.1893 98.5053 14.1582C100.789 9.96519 104.42 7.69027 109.028 7.04444C111.973 6.63233 114.882 6.84254 117.673 7.96824C122.314 9.84072 124.973 13.4737 126.315 18.2503C127.06 20.9 127.068 23.6174 127.019 26.3377C127.01 26.9033 126.514 27.2725 125.835 27.2725C122.678 27.2753 119.523 27.2725 116.366 27.2725L116.365 27.2753ZM111.588 20.6995C113.121 20.6995 114.653 20.7036 116.186 20.6981C117.056 20.6953 117.434 20.2141 117.273 19.3345C116.811 16.8356 115.121 15.2245 112.537 14.8234C109.207 14.3062 106.482 16.1648 105.876 19.3663C105.72 20.1919 106.106 20.6939 106.924 20.6967C108.479 20.7036 110.034 20.6995 111.59 20.6981L111.588 20.6995Z"/>
<path d="M191.792 41.0838C189.238 41.1004 186.768 40.6606 184.434 39.5722C180.855 37.903 178.332 35.1718 176.98 31.413C175.134 26.2851 175.129 21.1088 177.19 16.0487C179.242 11.0093 183.101 8.16735 188.29 7.18824C191.486 6.58528 194.669 6.7457 197.759 7.83822C202.275 9.43411 205.333 12.5817 206.825 17.1992C208.476 22.3064 208.388 27.4246 206.199 32.3561C203.955 37.4093 199.905 40.0646 194.623 40.8957C193.685 41.0437 192.741 41.0865 191.792 41.0852V41.0838ZM184.716 23.8193C184.716 25.7471 184.905 27.455 185.578 29.0717C186.664 31.6854 188.61 33.0531 191.38 33.1707C194.273 33.2937 196.58 32.24 197.81 29.4478C199.261 26.1537 199.238 22.7254 198.156 19.3442C197.22 16.4234 195.006 14.8414 192.132 14.7708C188.871 14.692 186.715 16.0874 185.508 19.0717C184.87 20.6524 184.728 22.3202 184.717 23.8179L184.716 23.8193Z"/>
<path d="M142.396 18.0632C142.75 18.2542 142.755 18.7638 142.404 18.962C141.73 19.3428 141.099 19.7 140.455 20.0301C139.883 20.3233 139.629 20.7382 139.63 21.3923C139.633 23.1196 139.614 24.8482 139.573 26.5755C139.561 27.1038 139.753 27.444 140.19 27.6957C140.779 28.0345 141.352 28.401 141.934 28.7536C142.373 29.02 142.37 29.3012 141.925 29.5972C141.093 30.1476 140.267 30.7091 139.423 31.2387C138.945 31.5388 138.768 31.9426 138.776 32.5027C138.811 34.6905 138.828 36.8797 138.844 39.0675C138.851 40.0079 138.422 40.4407 137.504 40.4393C135.339 40.4366 133.176 40.4338 131.011 40.4255C130.212 40.4227 129.681 39.8779 129.674 39.055C129.644 35.4608 129.627 31.868 129.582 28.2737C129.576 27.863 129.708 27.6583 130.055 27.4813C132.211 26.3819 134.358 25.2645 136.504 24.1471C136.795 23.995 137.155 23.8995 137.162 23.4515C137.17 22.9674 136.791 22.8665 136.472 22.713C134.295 21.6578 132.122 20.593 129.931 19.5654C129.537 19.3801 129.414 19.1644 129.417 18.7371C129.434 15.4429 129.428 12.1488 129.433 8.85329C129.433 8.00002 129.773 7.65844 130.621 7.65705C132.898 7.65429 135.176 7.65291 137.453 7.65705C138.209 7.65705 138.508 7.95853 138.51 8.74265C138.516 10.8627 138.526 12.9813 138.504 15.1013C138.497 15.732 138.722 16.1289 139.28 16.4124C140.306 16.9344 141.318 17.4831 142.396 18.0632Z"/>
<path d="M148.461 28.6972L148.398 28.7359C148.082 28.933 148.074 29.3936 148.384 29.6013C149.16 30.1217 149.887 30.617 150.637 31.0726C151.265 31.4543 151.537 31.9217 151.516 32.6975C151.455 34.8397 151.474 36.9832 151.467 39.1254C151.464 39.9911 151.9 40.4392 152.723 40.4392C154.932 40.4364 157.142 40.4323 159.351 40.4267C160.247 40.424 160.669 40.0077 160.672 39.0963C160.684 35.5021 160.68 31.9079 160.71 28.3137C160.714 27.8462 160.556 27.6374 160.159 27.4369C158.04 26.3665 155.939 25.2602 153.832 24.1649C153.517 24.0017 153.122 23.8911 153.124 23.4292C153.127 22.9645 153.525 22.8594 153.844 22.7045C156.021 21.6493 158.2 20.5969 160.381 19.5487C160.654 19.4173 160.875 19.3094 160.866 18.9125C160.783 15.4815 160.736 12.0491 160.645 8.61802C160.63 8.0441 160.342 7.65412 159.664 7.65965C157.433 7.67901 155.2 7.65965 152.967 7.65965C152.166 7.65965 151.792 8.04964 151.788 8.87801C151.778 10.951 151.756 13.0254 151.778 15.0984C151.785 15.7318 151.572 16.1301 151.014 16.4122L148.004 18.1384C147.66 18.3357 147.663 18.8342 148.008 19.0288L148.03 19.0408C148.649 19.3898 149.267 19.7382 149.897 20.0631C150.452 20.3494 150.669 20.7698 150.669 21.3893C150.665 23.0945 150.673 24.7996 150.717 26.5034C150.734 27.1174 150.497 27.4881 149.989 27.7743C149.481 28.0617 148.985 28.3705 148.461 28.6972Z"/>
<path d="M163.801 23.9783C163.801 18.9334 163.801 13.8899 163.801 8.84496C163.801 7.86308 164.125 7.53256 165.096 7.53256C167.282 7.52979 169.469 7.52979 171.655 7.53256C172.444 7.53256 172.837 7.94329 172.837 8.75507C172.837 18.9127 172.837 29.0703 172.837 39.2292C172.837 40.0078 172.404 40.4504 171.641 40.4504C169.431 40.4504 167.223 40.4518 165.013 40.4504C164.188 40.4504 163.802 40.0466 163.802 39.1822C163.802 34.1152 163.802 29.0468 163.802 23.9797L163.801 23.9783Z"/>
<path d="M147.601 25.2141C147.598 25.3944 147.5 25.5597 147.343 25.6487L145.294 26.8104C145.133 26.9018 144.935 26.8984 144.777 26.8016L142.768 25.5698C142.615 25.4757 142.522 25.3075 142.525 25.1275L142.564 22.7149C142.567 22.5346 142.665 22.3693 142.822 22.2804L144.871 21.1186C145.032 21.0272 145.23 21.0306 145.388 21.1274L147.397 22.3592C147.55 22.4533 147.643 22.6215 147.64 22.8015L147.601 25.2141Z"/>
</mask>
<path d="M63 24.0088C63 18.9404 63 13.8733 63 8.80488C63 7.88247 63.341 7.53397 64.2557 7.53121C66.2163 7.52567 68.1783 7.55057 70.1389 7.51461C70.852 7.50217 71.2174 7.87694 71.4596 8.46607C71.6071 8.82563 71.7004 9.20731 71.8222 9.57794C72.0617 10.3012 72.377 10.3966 72.9331 9.87803C74.1874 8.70946 75.6095 7.83269 77.2535 7.40674C81.279 6.3654 85.1421 6.67241 88.6114 9.19763C91.2594 11.1254 92.53 13.9286 93.0469 17.1343C93.2187 18.2033 93.2837 19.2833 93.2837 20.3675C93.2837 26.6101 93.285 32.8526 93.2837 39.0951C93.2837 40.0895 92.9292 40.4449 91.9428 40.4449C89.8008 40.4476 87.6589 40.4476 85.5183 40.4449C84.6374 40.4449 84.249 40.0563 84.249 39.167C84.249 33.0393 84.2463 26.9129 84.2504 20.7852C84.2504 19.9748 84.1828 19.1741 83.9838 18.3913C83.4818 16.4151 82.2884 15.147 80.2736 14.8801C77.6933 14.5399 75.301 14.934 73.5853 17.1979C72.542 18.5739 72.1226 20.2196 72.0901 21.9192C72.0197 25.6033 72.0373 29.2888 72.0252 32.9743C72.0184 35.0473 72.0252 37.1203 72.0225 39.1933C72.0211 40.048 71.6274 40.4421 70.7884 40.4435C68.6248 40.4435 66.4599 40.4449 64.2963 40.4435C63.345 40.4435 63 40.0936 63 39.138C63 34.0931 63 29.0482 63 24.0032V24.0088Z" fill="#288DFE"/>
<path d="M116.365 27.2753C113.254 27.2753 110.142 27.2753 107.031 27.2753C106.016 27.2753 105.655 27.7496 105.9 28.7592C106.486 31.1821 108.658 32.9591 111.291 33.1472C112.606 33.2412 113.904 33.179 115.136 32.6148C115.745 32.3368 116.259 31.9523 116.635 31.3743C116.999 30.8142 117.447 30.5044 118.193 30.5279C120.264 30.5943 122.34 30.5501 124.414 30.5528C125.523 30.5542 125.854 30.9801 125.577 32.0464C124.517 36.1371 121.982 38.878 118.085 40.1669C113.718 41.6107 109.319 41.5028 105.061 39.6871C100.8 37.8699 98.1765 34.4873 96.956 30.0149C95.4649 24.5509 95.7653 19.1893 98.5053 14.1582C100.789 9.96519 104.42 7.69027 109.028 7.04444C111.973 6.63233 114.882 6.84254 117.673 7.96824C122.314 9.84072 124.973 13.4737 126.315 18.2503C127.06 20.9 127.068 23.6174 127.019 26.3377C127.01 26.9033 126.514 27.2725 125.835 27.2725C122.678 27.2753 119.523 27.2725 116.366 27.2725L116.365 27.2753ZM111.588 20.6995C113.121 20.6995 114.653 20.7036 116.186 20.6981C117.056 20.6953 117.434 20.2141 117.273 19.3345C116.811 16.8356 115.121 15.2245 112.537 14.8234C109.207 14.3062 106.482 16.1648 105.876 19.3663C105.72 20.1919 106.106 20.6939 106.924 20.6967C108.479 20.7036 110.034 20.6995 111.59 20.6981L111.588 20.6995Z" fill="#288DFE"/>
<path d="M191.792 41.0838C189.238 41.1004 186.768 40.6606 184.434 39.5722C180.855 37.903 178.332 35.1718 176.98 31.413C175.134 26.2851 175.129 21.1088 177.19 16.0487C179.242 11.0093 183.101 8.16735 188.29 7.18824C191.486 6.58528 194.669 6.7457 197.759 7.83822C202.275 9.43411 205.333 12.5817 206.825 17.1992C208.476 22.3064 208.388 27.4246 206.199 32.3561C203.955 37.4093 199.905 40.0646 194.623 40.8957C193.685 41.0437 192.741 41.0865 191.792 41.0852V41.0838ZM184.716 23.8193C184.716 25.7471 184.905 27.455 185.578 29.0717C186.664 31.6854 188.61 33.0531 191.38 33.1707C194.273 33.2937 196.58 32.24 197.81 29.4478C199.261 26.1537 199.238 22.7254 198.156 19.3442C197.22 16.4234 195.006 14.8414 192.132 14.7708C188.871 14.692 186.715 16.0874 185.508 19.0717C184.87 20.6524 184.728 22.3202 184.717 23.8179L184.716 23.8193Z" fill="#288DFE"/>
<path d="M142.396 18.0632C142.75 18.2542 142.755 18.7638 142.404 18.962C141.73 19.3428 141.099 19.7 140.455 20.0301C139.883 20.3233 139.629 20.7382 139.63 21.3923C139.633 23.1196 139.614 24.8482 139.573 26.5755C139.561 27.1038 139.753 27.444 140.19 27.6957C140.779 28.0345 141.352 28.401 141.934 28.7536C142.373 29.02 142.37 29.3012 141.925 29.5972C141.093 30.1476 140.267 30.7091 139.423 31.2387C138.945 31.5388 138.768 31.9426 138.776 32.5027C138.811 34.6905 138.828 36.8797 138.844 39.0675C138.851 40.0079 138.422 40.4407 137.504 40.4393C135.339 40.4366 133.176 40.4338 131.011 40.4255C130.212 40.4227 129.681 39.8779 129.674 39.055C129.644 35.4608 129.627 31.868 129.582 28.2737C129.576 27.863 129.708 27.6583 130.055 27.4813C132.211 26.3819 134.358 25.2645 136.504 24.1471C136.795 23.995 137.155 23.8995 137.162 23.4515C137.17 22.9674 136.791 22.8665 136.472 22.713C134.295 21.6578 132.122 20.593 129.931 19.5654C129.537 19.3801 129.414 19.1644 129.417 18.7371C129.434 15.4429 129.428 12.1488 129.433 8.85329C129.433 8.00002 129.773 7.65844 130.621 7.65705C132.898 7.65429 135.176 7.65291 137.453 7.65705C138.209 7.65705 138.508 7.95853 138.51 8.74265C138.516 10.8627 138.526 12.9813 138.504 15.1013C138.497 15.732 138.722 16.1289 139.28 16.4124C140.306 16.9344 141.318 17.4831 142.396 18.0632Z" fill="#288DFE"/>
<path d="M148.461 28.6972L148.398 28.7359C148.082 28.933 148.074 29.3936 148.384 29.6013C149.16 30.1217 149.887 30.617 150.637 31.0726C151.265 31.4543 151.537 31.9217 151.516 32.6975C151.455 34.8397 151.474 36.9832 151.467 39.1254C151.464 39.9911 151.9 40.4392 152.723 40.4392C154.932 40.4364 157.142 40.4323 159.351 40.4267C160.247 40.424 160.669 40.0077 160.672 39.0963C160.684 35.5021 160.68 31.9079 160.71 28.3137C160.714 27.8462 160.556 27.6374 160.159 27.4369C158.04 26.3665 155.939 25.2602 153.832 24.1649C153.517 24.0017 153.122 23.8911 153.124 23.4292C153.127 22.9645 153.525 22.8594 153.844 22.7045C156.021 21.6493 158.2 20.5969 160.381 19.5487C160.654 19.4173 160.875 19.3094 160.866 18.9125C160.783 15.4815 160.736 12.0491 160.645 8.61802C160.63 8.0441 160.342 7.65412 159.664 7.65965C157.433 7.67901 155.2 7.65965 152.967 7.65965C152.166 7.65965 151.792 8.04964 151.788 8.87801C151.778 10.951 151.756 13.0254 151.778 15.0984C151.785 15.7318 151.572 16.1301 151.014 16.4122L148.004 18.1384C147.66 18.3357 147.663 18.8342 148.008 19.0288L148.03 19.0408C148.649 19.3898 149.267 19.7382 149.897 20.0631C150.452 20.3494 150.669 20.7698 150.669 21.3893C150.665 23.0945 150.673 24.7996 150.717 26.5034C150.734 27.1174 150.497 27.4881 149.989 27.7743C149.481 28.0617 148.985 28.3705 148.461 28.6972Z" fill="#288DFE"/>
<path d="M163.801 23.9783C163.801 18.9334 163.801 13.8899 163.801 8.84496C163.801 7.86308 164.125 7.53256 165.096 7.53256C167.282 7.52979 169.469 7.52979 171.655 7.53256C172.444 7.53256 172.837 7.94329 172.837 8.75507C172.837 18.9127 172.837 29.0703 172.837 39.2292C172.837 40.0078 172.404 40.4504 171.641 40.4504C169.431 40.4504 167.223 40.4518 165.013 40.4504C164.188 40.4504 163.802 40.0466 163.802 39.1822C163.802 34.1152 163.802 29.0468 163.802 23.9797L163.801 23.9783Z" fill="#288DFE"/>
<path d="M147.601 25.2141C147.598 25.3944 147.5 25.5597 147.343 25.6487L145.294 26.8104C145.133 26.9018 144.935 26.8984 144.777 26.8016L142.768 25.5698C142.615 25.4757 142.522 25.3075 142.525 25.1275L142.564 22.7149C142.567 22.5346 142.665 22.3693 142.822 22.2804L144.871 21.1186C145.032 21.0272 145.23 21.0306 145.388 21.1274L147.397 22.3592C147.55 22.4533 147.643 22.6215 147.64 22.8015L147.601 25.2141Z" fill="#288DFE"/>
<path d="M63 24.0088C63 18.9404 63 13.8733 63 8.80488C63 7.88247 63.341 7.53397 64.2557 7.53121C66.2163 7.52567 68.1783 7.55057 70.1389 7.51461C70.852 7.50217 71.2174 7.87694 71.4596 8.46607C71.6071 8.82563 71.7004 9.20731 71.8222 9.57794C72.0617 10.3012 72.377 10.3966 72.9331 9.87803C74.1874 8.70946 75.6095 7.83269 77.2535 7.40674C81.279 6.3654 85.1421 6.67241 88.6114 9.19763C91.2594 11.1254 92.53 13.9286 93.0469 17.1343C93.2187 18.2033 93.2837 19.2833 93.2837 20.3675C93.2837 26.6101 93.285 32.8526 93.2837 39.0951C93.2837 40.0895 92.9292 40.4449 91.9428 40.4449C89.8008 40.4476 87.6589 40.4476 85.5183 40.4449C84.6374 40.4449 84.249 40.0563 84.249 39.167C84.249 33.0393 84.2463 26.9129 84.2504 20.7852C84.2504 19.9748 84.1828 19.1741 83.9838 18.3913C83.4818 16.4151 82.2884 15.147 80.2736 14.8801C77.6933 14.5399 75.301 14.934 73.5853 17.1979C72.542 18.5739 72.1226 20.2196 72.0901 21.9192C72.0197 25.6033 72.0373 29.2888 72.0252 32.9743C72.0184 35.0473 72.0252 37.1203 72.0225 39.1933C72.0211 40.048 71.6274 40.4421 70.7884 40.4435C68.6248 40.4435 66.4599 40.4449 64.2963 40.4435C63.345 40.4435 63 40.0936 63 39.138C63 34.0931 63 29.0482 63 24.0032V24.0088Z" stroke="white" stroke-width="1.95475" mask="url(#path-2-outside-1_517_52463)"/>
<path d="M116.365 27.2753C113.254 27.2753 110.142 27.2753 107.031 27.2753C106.016 27.2753 105.655 27.7496 105.9 28.7592C106.486 31.1821 108.658 32.9591 111.291 33.1472C112.606 33.2412 113.904 33.179 115.136 32.6148C115.745 32.3368 116.259 31.9523 116.635 31.3743C116.999 30.8142 117.447 30.5044 118.193 30.5279C120.264 30.5943 122.34 30.5501 124.414 30.5528C125.523 30.5542 125.854 30.9801 125.577 32.0464C124.517 36.1371 121.982 38.878 118.085 40.1669C113.718 41.6107 109.319 41.5028 105.061 39.6871C100.8 37.8699 98.1765 34.4873 96.956 30.0149C95.4649 24.5509 95.7653 19.1893 98.5053 14.1582C100.789 9.96519 104.42 7.69027 109.028 7.04444C111.973 6.63233 114.882 6.84254 117.673 7.96824C122.314 9.84072 124.973 13.4737 126.315 18.2503C127.06 20.9 127.068 23.6174 127.019 26.3377C127.01 26.9033 126.514 27.2725 125.835 27.2725C122.678 27.2753 119.523 27.2725 116.366 27.2725L116.365 27.2753ZM111.588 20.6995C113.121 20.6995 114.653 20.7036 116.186 20.6981C117.056 20.6953 117.434 20.2141 117.273 19.3345C116.811 16.8356 115.121 15.2245 112.537 14.8234C109.207 14.3062 106.482 16.1648 105.876 19.3663C105.72 20.1919 106.106 20.6939 106.924 20.6967C108.479 20.7036 110.034 20.6995 111.59 20.6981L111.588 20.6995Z" stroke="white" stroke-width="1.95475" mask="url(#path-2-outside-1_517_52463)"/>
<path d="M191.792 41.0838C189.238 41.1004 186.768 40.6606 184.434 39.5722C180.855 37.903 178.332 35.1718 176.98 31.413C175.134 26.2851 175.129 21.1088 177.19 16.0487C179.242 11.0093 183.101 8.16735 188.29 7.18824C191.486 6.58528 194.669 6.7457 197.759 7.83822C202.275 9.43411 205.333 12.5817 206.825 17.1992C208.476 22.3064 208.388 27.4246 206.199 32.3561C203.955 37.4093 199.905 40.0646 194.623 40.8957C193.685 41.0437 192.741 41.0865 191.792 41.0852V41.0838ZM184.716 23.8193C184.716 25.7471 184.905 27.455 185.578 29.0717C186.664 31.6854 188.61 33.0531 191.38 33.1707C194.273 33.2937 196.58 32.24 197.81 29.4478C199.261 26.1537 199.238 22.7254 198.156 19.3442C197.22 16.4234 195.006 14.8414 192.132 14.7708C188.871 14.692 186.715 16.0874 185.508 19.0717C184.87 20.6524 184.728 22.3202 184.717 23.8179L184.716 23.8193Z" stroke="white" stroke-width="1.95475" mask="url(#path-2-outside-1_517_52463)"/>
<path d="M142.396 18.0632C142.75 18.2542 142.755 18.7638 142.404 18.962C141.73 19.3428 141.099 19.7 140.455 20.0301C139.883 20.3233 139.629 20.7382 139.63 21.3923C139.633 23.1196 139.614 24.8482 139.573 26.5755C139.561 27.1038 139.753 27.444 140.19 27.6957C140.779 28.0345 141.352 28.401 141.934 28.7536C142.373 29.02 142.37 29.3012 141.925 29.5972C141.093 30.1476 140.267 30.7091 139.423 31.2387C138.945 31.5388 138.768 31.9426 138.776 32.5027C138.811 34.6905 138.828 36.8797 138.844 39.0675C138.851 40.0079 138.422 40.4407 137.504 40.4393C135.339 40.4366 133.176 40.4338 131.011 40.4255C130.212 40.4227 129.681 39.8779 129.674 39.055C129.644 35.4608 129.627 31.868 129.582 28.2737C129.576 27.863 129.708 27.6583 130.055 27.4813C132.211 26.3819 134.358 25.2645 136.504 24.1471C136.795 23.995 137.155 23.8995 137.162 23.4515C137.17 22.9674 136.791 22.8665 136.472 22.713C134.295 21.6578 132.122 20.593 129.931 19.5654C129.537 19.3801 129.414 19.1644 129.417 18.7371C129.434 15.4429 129.428 12.1488 129.433 8.85329C129.433 8.00002 129.773 7.65844 130.621 7.65705C132.898 7.65429 135.176 7.65291 137.453 7.65705C138.209 7.65705 138.508 7.95853 138.51 8.74265C138.516 10.8627 138.526 12.9813 138.504 15.1013C138.497 15.732 138.722 16.1289 139.28 16.4124C140.306 16.9344 141.318 17.4831 142.396 18.0632Z" stroke="white" stroke-width="1.95475" mask="url(#path-2-outside-1_517_52463)"/>
<path d="M148.461 28.6972L148.398 28.7359C148.082 28.933 148.074 29.3936 148.384 29.6013C149.16 30.1217 149.887 30.617 150.637 31.0726C151.265 31.4543 151.537 31.9217 151.516 32.6975C151.455 34.8397 151.474 36.9832 151.467 39.1254C151.464 39.9911 151.9 40.4392 152.723 40.4392C154.932 40.4364 157.142 40.4323 159.351 40.4267C160.247 40.424 160.669 40.0077 160.672 39.0963C160.684 35.5021 160.68 31.9079 160.71 28.3137C160.714 27.8462 160.556 27.6374 160.159 27.4369C158.04 26.3665 155.939 25.2602 153.832 24.1649C153.517 24.0017 153.122 23.8911 153.124 23.4292C153.127 22.9645 153.525 22.8594 153.844 22.7045C156.021 21.6493 158.2 20.5969 160.381 19.5487C160.654 19.4173 160.875 19.3094 160.866 18.9125C160.783 15.4815 160.736 12.0491 160.645 8.61802C160.63 8.0441 160.342 7.65412 159.664 7.65965C157.433 7.67901 155.2 7.65965 152.967 7.65965C152.166 7.65965 151.792 8.04964 151.788 8.87801C151.778 10.951 151.756 13.0254 151.778 15.0984C151.785 15.7318 151.572 16.1301 151.014 16.4122L148.004 18.1384C147.66 18.3357 147.663 18.8342 148.008 19.0288L148.03 19.0408C148.649 19.3898 149.267 19.7382 149.897 20.0631C150.452 20.3494 150.669 20.7698 150.669 21.3893C150.665 23.0945 150.673 24.7996 150.717 26.5034C150.734 27.1174 150.497 27.4881 149.989 27.7743C149.481 28.0617 148.985 28.3705 148.461 28.6972Z" stroke="white" stroke-width="1.95475" mask="url(#path-2-outside-1_517_52463)"/>
<path d="M163.801 23.9783C163.801 18.9334 163.801 13.8899 163.801 8.84496C163.801 7.86308 164.125 7.53256 165.096 7.53256C167.282 7.52979 169.469 7.52979 171.655 7.53256C172.444 7.53256 172.837 7.94329 172.837 8.75507C172.837 18.9127 172.837 29.0703 172.837 39.2292C172.837 40.0078 172.404 40.4504 171.641 40.4504C169.431 40.4504 167.223 40.4518 165.013 40.4504C164.188 40.4504 163.802 40.0466 163.802 39.1822C163.802 34.1152 163.802 29.0468 163.802 23.9797L163.801 23.9783Z" stroke="white" stroke-width="1.95475" mask="url(#path-2-outside-1_517_52463)"/>
<path d="M147.601 25.2141C147.598 25.3944 147.5 25.5597 147.343 25.6487L145.294 26.8104C145.133 26.9018 144.935 26.8984 144.777 26.8016L142.768 25.5698C142.615 25.4757 142.522 25.3075 142.525 25.1275L142.564 22.7149C142.567 22.5346 142.665 22.3693 142.822 22.2804L144.871 21.1186C145.032 21.0272 145.23 21.0306 145.388 21.1274L147.397 22.3592C147.55 22.4533 147.643 22.6215 147.64 22.8015L147.601 25.2141Z" stroke="white" stroke-width="1.95475" mask="url(#path-2-outside-1_517_52463)"/>
</svg>
