<svg width="132" height="132" viewBox="0 0 132 132" fill="none" xmlns="http://www.w3.org/2000/svg">
<path d="M31.9705 48.4175V58.3175L36.2737 60.7727V68.3759L34.1089 69.6167L29.0137 67.0823L21.0938 70.9631V76.1111L24.8161 77.8799H24.8425L21.0938 79.3847V83.7935L26.1361 87.0671C27.4033 87.8855 29.0401 87.9119 30.3337 87.1463L35.7457 83.8991C36.3529 83.5295 36.7489 82.8695 36.7489 82.1303V80.5991L46.6754 74.7383C47.4146 74.3159 47.8634 73.5239 47.8634 72.6527V59.5583C47.837 59.5583 52.5097 56.8655 52.5097 56.8655L52.5626 48.3911L42.2401 42.5039L31.9969 48.4175H31.9705Z" fill="white"/>
<path d="M50.0284 48.6818L42.1348 44.2994C42.0292 44.2466 41.9236 44.2466 41.818 44.2994L34.03 48.7874C33.8188 48.9194 33.8188 49.2098 34.03 49.3418L42.0556 53.6186C42.1612 53.6714 42.2668 53.6714 42.346 53.6186L50.0284 49.2362C50.2396 49.1042 50.2396 48.8138 50.0284 48.6818Z" fill="#288DFE"/>
<path d="M39.5208 71.6776L37.1184 70.1992C37.092 70.1992 37.0656 70.1992 37.0392 70.1992L36.3264 70.5688V73.4992C36.3264 73.4992 36.3792 73.4992 36.4056 73.4992L39.5472 71.836C39.6 71.8096 39.6 71.704 39.5472 71.6776H39.5208Z" fill="#288DFE"/>
<path d="M29.0401 68.9045L33.8185 71.1485C34.0033 71.2277 34.0297 71.5181 33.8185 71.6237L27.6145 74.9765C27.5353 75.0293 27.4561 75.0293 27.3769 74.9765L22.8361 72.5477C22.6513 72.4421 22.6513 72.1781 22.8361 72.0725L28.8025 68.9309C28.8817 68.9045 28.9609 68.8781 29.0401 68.9309V68.9045Z" fill="#288DFE"/>
<path d="M26.2946 79.1224L27.0074 79.5184C27.641 79.8616 28.4066 79.8616 29.0402 79.5184L30.0698 78.9376C30.2546 78.832 30.4658 78.964 30.4658 79.1752V82.3432C30.4658 82.4488 30.413 82.528 30.3074 82.5808L28.6442 83.452C28.5386 83.5048 28.433 83.5048 28.3274 83.452L23.813 80.9176C23.5754 80.7856 23.5754 80.4424 23.813 80.3368L26.2682 79.1224H26.2946Z" fill="#288DFE"/>
<path d="M50.767 50.5039L42.3718 55.0447V56.5495L50.7406 51.9823L50.767 50.5039Z" fill="#288DFE"/>
<path d="M42.3718 61.9609L50.7406 57.3409V55.7305L42.3718 60.5353V61.9609Z" fill="#288DFE"/>
<path d="M50.7406 53.1172L42.3718 57.7636V59.2684L50.7406 54.49V53.1172Z" fill="#288DFE"/>
<path d="M42.2402 68.5067L46.385 66.1043V64.7051L42.2402 67.1075V68.5067Z" fill="#288DFE"/>
<path d="M42.2402 71.2782L46.385 68.8758V67.4766L42.2402 69.879V71.2782Z" fill="#288DFE"/>
<path d="M42.2402 74.3407L46.385 71.9119V70.5391L42.2402 72.9151V74.3407Z" fill="#288DFE"/>
<path d="M27.9314 77.907C27.9314 77.907 27.9314 77.9334 27.9314 77.9598L34.6634 74.0526V72.5742L27.9314 76.4286V77.907Z" fill="#288DFE"/>
<path d="M34.9273 81.3398L28.8025 84.7718C28.4329 84.983 28.1953 85.379 28.1953 85.8014V86.3558L34.9273 82.4486V81.3398Z" fill="#288DFE"/>
<path d="M31.3631 79.0656L34.7159 77.112V75.8184L31.3367 77.7456L31.3631 79.0656Z" fill="#288DFE"/>
<path d="M31.4422 81.6253L34.7158 79.7245V78.2461L31.3894 80.1469L31.4422 81.6253Z" fill="#288DFE"/>
<path d="M36.3792 76.2974L40.5504 73.8686V72.7598L36.3792 75.083V76.2974Z" fill="#288DFE"/>
<path d="M36.3792 79.0419L40.5504 76.6131V75.1875L36.3792 77.5635V79.0419Z" fill="#288DFE"/>
<path d="M105.336 84.2419V46.3843C105.336 44.1667 104.148 42.1075 102.22 40.9987L69.4581 22.0699C67.5309 20.9611 65.1813 20.9611 63.2541 22.0699L30.4917 40.9987C28.5645 42.1075 27.3765 44.1667 27.3765 46.3843V84.2419C27.3765 86.4595 28.5645 88.5187 30.4917 89.6275L63.2541 108.556C65.1813 109.665 67.5309 109.665 69.4581 108.556L102.22 89.6275C104.148 88.5187 105.336 86.4595 105.336 84.2419Z" fill="white"/>
<path d="M103.408 85.3245V44.5101C103.408 43.9821 103.118 43.4805 102.669 43.2165L67.3196 22.8093C66.8708 22.5453 66.29 22.5453 65.8412 22.8093L30.4916 43.2165C30.0428 43.4805 29.7524 43.9821 29.7524 44.5101V85.3245C29.7524 85.8525 30.0428 86.3541 30.4916 86.6181L65.8412 107.025C66.29 107.289 66.8708 107.289 67.3196 107.025L102.669 86.6181C103.118 86.3541 103.408 85.8525 103.408 85.3245Z" fill="white"/>
<path d="M36.0356 40.127L73.7876 62.7518L67.478 66.263L29.7524 43.955L36.0356 40.127Z" fill="#288DFE"/>
<path d="M68.402 23.602L102.458 43.4019C103.461 43.9827 103.461 45.4084 102.458 46.0156L75.5828 61.9083L37.6196 39.1516L64.442 23.6284C65.6564 22.9156 67.1612 22.9156 68.402 23.6284V23.602Z" fill="#288DFE"/>
<path d="M73.7876 62.751L73.9196 103.513L75.5828 102.43L75.6092 61.9062L73.7876 62.751Z" fill="#288DFE"/>
<path d="M67.5049 68.0315L67.4521 69.6947L103.145 48.9707L103.303 48.7859C103.567 48.4955 103.726 48.1259 103.673 47.7299V47.4395C103.647 47.4395 103.145 47.6243 103.145 47.6243L67.5313 68.0315H67.5049Z" fill="#288DFE"/>
<path d="M67.5049 70.9358L67.4521 72.599L103.145 51.875L103.303 51.6902C103.567 51.3998 103.726 51.0302 103.673 50.6342V50.3438C103.647 50.3438 103.145 50.5285 103.145 50.5285L67.5313 70.9358H67.5049Z" fill="#288DFE"/>
<path d="M67.5049 73.8401L67.4521 75.5032L103.145 54.7792L103.303 54.5944C103.567 54.304 103.726 53.9344 103.673 53.5384V53.248C103.647 53.248 103.145 53.4328 103.145 53.4328L67.5313 73.8401H67.5049Z" fill="#288DFE"/>
<path d="M67.5049 76.7424L67.4521 78.4056L103.145 57.6816L103.303 57.4968C103.567 57.2064 103.726 56.8368 103.673 56.4408V56.1504C103.647 56.1504 103.145 56.3352 103.145 56.3352L67.5313 76.7424H67.5049Z" fill="#288DFE"/>
<path d="M67.5049 79.6467L67.4521 81.3099L103.145 60.5859L103.303 60.4011C103.567 60.1107 103.726 59.7411 103.673 59.3451V59.0547C103.647 59.0547 103.145 59.2395 103.145 59.2395L67.5313 79.6467H67.5049Z" fill="#288DFE"/>
<path d="M67.5049 82.551L67.4521 84.2142L103.145 63.4902L103.303 63.3054C103.567 63.015 103.726 62.6454 103.673 62.2494V61.959C103.647 61.959 103.145 62.1438 103.145 62.1438L67.5313 82.551H67.5049Z" fill="#288DFE"/>
<path d="M67.5049 85.4553L67.4521 87.1185L103.145 66.3945L103.303 66.2097C103.567 65.9193 103.726 65.5497 103.673 65.1537V64.8633C103.647 64.8633 103.145 65.0481 103.145 65.0481L67.5313 85.4553H67.5049Z" fill="#288DFE"/>
<path d="M67.5049 88.3596L67.4521 90.0228L103.145 69.2988L103.303 69.114C103.567 68.8236 103.726 68.454 103.673 68.058V67.7676C103.647 67.7676 103.145 67.9524 103.145 67.9524L67.5313 88.3596H67.5049Z" fill="#288DFE"/>
<path d="M67.5049 91.2639L67.4521 92.9271L103.145 72.2031L103.303 72.0183C103.567 71.7279 103.726 71.3583 103.673 70.9623V70.6719C103.647 70.6719 103.145 70.8567 103.145 70.8567L67.5313 91.2639H67.5049Z" fill="#288DFE"/>
<path d="M67.5049 94.1662L67.4521 95.8294L103.145 75.1054L103.303 74.9206C103.567 74.6302 103.726 74.2606 103.673 73.8646V73.5742C103.647 73.5742 103.145 73.759 103.145 73.759L67.5313 94.1662H67.5049Z" fill="#288DFE"/>
<path d="M67.5049 97.0705L67.4521 98.7337L103.145 78.0097L103.303 77.8249C103.567 77.5345 103.726 77.1649 103.673 76.7689V76.4785C103.647 76.4785 103.145 76.6633 103.145 76.6633L67.5313 97.0705H67.5049Z" fill="#288DFE"/>
<path d="M67.5049 99.9748L67.4521 101.638L103.145 80.914L103.303 80.7292C103.567 80.4388 103.726 80.0692 103.673 79.6732V79.3828C103.647 79.3828 103.145 79.5676 103.145 79.5676L67.5313 99.9748H67.5049Z" fill="#288DFE"/>
<path d="M67.5049 102.879L67.4521 104.542L103.145 83.8183L103.303 83.6335C103.567 83.3431 103.726 82.9735 103.673 82.5775V82.2871C103.647 82.2871 103.145 82.4719 103.145 82.4719L67.5313 102.879H67.5049Z" fill="#288DFE"/>
<path d="M67.5049 105.783L67.4521 107.447L103.145 86.7226L103.303 86.5378C103.567 86.2474 103.726 85.8778 103.673 85.4818V85.1914C103.647 85.1914 103.145 85.3762 103.145 85.3762L67.5313 105.783H67.5049Z" fill="#288DFE"/>
<path d="M64.9969 83.1589L29.5417 62.7781V64.1245L65.2081 85.0069C65.6305 85.2709 66.1849 85.2709 66.6073 85.0069L103.119 63.4909V62.1445L66.5546 83.1589C66.0794 83.4493 65.4721 83.4493 64.9969 83.1589Z" fill="#288DFE"/>
<path d="M51.3218 58.7383V60.2431L57.869 64.4407V62.8303L51.3218 58.7383Z" fill="#288DFE"/>
<path d="M35.5081 49.8672V51.372L42.0553 55.2264V53.616L35.5081 49.8672Z" fill="#288DFE"/>
<path d="M62.7265 68.4008C62.8849 68.4008 63.3073 68.2688 63.3073 67.7672C63.3073 67.2656 62.5681 66.9488 62.5681 66.9488C62.5681 66.9488 61.0633 66.764 60.4033 68.2424C59.7433 69.7208 59.6377 75.3176 60.7993 76.1888C61.9609 77.06 61.8553 76.8752 62.4097 76.928C62.9641 76.9808 63.7297 75.6872 62.3833 75.608C60.9577 75.08 61.3801 68.612 62.7265 68.4008Z" fill="#288DFE"/>
<path d="M62.7265 88.3598C62.8849 88.3598 63.3073 88.2278 63.3073 87.7262C63.3073 87.2246 62.5681 86.9078 62.5681 86.9078C62.5681 86.9078 61.0633 86.723 60.4033 88.2014C59.7433 89.6798 59.6377 95.2766 60.7993 96.1478C61.9609 97.019 61.8553 96.8342 62.4097 96.887C62.9641 96.9398 63.7297 95.6462 62.3833 95.567C60.9577 95.039 61.3801 88.571 62.7265 88.3598Z" fill="#288DFE"/>
<path d="M54.3579 63.2793L51.8499 64.6521V69.1401L54.1467 72.7833L57.0771 71.9385V67.1073L54.3315 63.2793H54.3579ZM55.9683 70.6185L54.1467 71.1465L52.7211 68.9025V66.1305L54.2523 65.2857L55.9419 67.6353V70.6185H55.9683Z" fill="#288DFE"/>
<path d="M38.5705 54.2246L36.0625 55.5974V60.0854L38.3593 63.7286L41.2897 62.8838V58.0526L38.5441 54.2246H38.5705ZM40.1809 61.5374L38.3593 62.0654L36.9337 59.8214V57.0494L38.4649 56.2046L40.1545 58.5542V61.5374H40.1809Z" fill="#288DFE"/>
<path d="M72.8641 38.1483C71.7289 37.9371 70.6993 37.7523 69.6961 37.5147C69.0625 37.3827 68.5345 37.4355 68.0329 37.6995C66.7129 38.4123 65.3665 39.0987 64.0465 39.7851C63.6505 39.9963 63.5185 40.2075 63.6505 40.5243C63.8353 40.9203 63.9937 41.3427 64.1521 41.7387C64.2841 42.0555 64.0729 42.1611 63.5185 42.0555C62.4889 41.8971 61.4593 41.7387 60.4561 41.5539C59.8753 41.4483 59.4529 41.5539 59.0569 41.7651C57.4993 42.6099 55.9945 43.4283 54.5689 44.2203C53.9617 44.5635 53.3809 44.5107 52.7209 44.1147C51.1633 43.1907 49.6585 42.2931 48.2329 41.5011C47.7049 41.2107 47.6785 40.8147 48.1801 40.5243C50.5825 39.0723 53.0113 37.6467 55.4401 36.2475C55.7305 36.0627 55.9681 36.0363 56.3641 36.1155C58.7929 36.5379 61.2217 36.9867 63.6241 37.4619C63.9673 37.5411 64.2841 37.6467 64.6537 37.4619C65.0233 37.2771 64.8385 37.0659 64.7065 36.8547C63.8881 35.4555 63.0697 34.1091 62.1193 32.7627C61.9609 32.5251 62.0137 32.3931 62.3305 32.2083C64.6537 30.9147 66.9769 29.6211 69.3001 28.3275C69.8545 28.0107 70.3825 28.0371 71.1217 28.3803C73.0753 29.3307 74.9233 30.3075 76.6921 31.2579C77.2729 31.5747 77.2993 31.8123 76.7185 32.1291C75.2137 32.9475 73.6297 33.7923 72.0193 34.6635C71.5441 34.9275 71.4121 35.1651 71.5969 35.5347C72.0457 36.3795 72.4153 37.2243 72.8641 38.1747V38.1483Z" fill="white"/>
<path d="M68.1912 44.5903C69.168 44.7751 70.0392 44.9335 70.9104 45.0919C71.4912 45.2239 71.94 45.1711 72.3624 44.9071C73.5504 44.1943 74.8176 43.4551 76.0584 42.7423C76.5072 42.4783 76.6656 42.1879 76.4808 41.8183C76.1904 41.2111 75.9264 40.5775 75.6624 39.9703C75.9264 39.8647 76.1376 39.9703 76.3224 40.0231C77.5368 40.2607 78.7776 40.4983 79.9656 40.7359C80.5728 40.8679 81.0216 40.7887 81.4704 40.4983C82.9752 39.5743 84.5328 38.6503 86.064 37.7263C86.6712 37.3567 87.1992 37.3303 87.7536 37.6471C89.2848 38.5447 90.816 39.4159 92.3736 40.2343C92.8488 40.4983 92.7696 40.7887 92.3736 41.0791C89.9976 42.7951 87.6216 44.4847 85.2192 46.1479C84.9552 46.3327 84.7176 46.2799 84.4272 46.2271C82.0776 45.7783 79.7544 45.2767 77.3784 44.7223C77.0352 44.6431 76.6656 44.5111 76.3224 44.7223C75.9792 44.9071 76.1904 45.1447 76.3224 45.3559C77.088 46.7815 77.9064 48.2335 78.8304 49.6591C78.9888 49.9231 78.9888 50.0815 78.672 50.2927C76.3488 51.7447 74.052 53.1967 71.7288 54.6223C71.1744 54.9655 70.5672 54.9127 69.828 54.4903C68.0064 53.4343 66.2112 52.3519 64.416 51.2431C63.756 50.8471 63.6768 50.4775 64.2312 50.1607C65.604 49.3951 67.0296 48.5767 68.5608 47.7583C69.1152 47.4679 69.2208 47.1511 69.0096 46.7023C68.6928 46.0159 68.4288 45.3295 68.1648 44.5639L68.1912 44.5903Z" fill="white"/>
<path d="M71.2007 44.1145C69.2999 43.7185 68.3495 43.5337 66.4487 43.1377C65.9735 42.0025 65.7623 41.4217 65.3135 40.3129C66.7655 39.5473 67.5311 39.1777 69.0095 38.4121C70.9103 38.7817 71.8607 38.9665 73.7351 39.3097C74.1311 40.4449 74.3423 41.0257 74.7647 42.1609C73.3127 42.9529 72.5999 43.3489 71.1743 44.1145H71.2007Z" fill="white"/>
<path d="M75.5831 73.812V83.712L79.8863 86.1672V93.7704L77.7215 95.0112L72.6263 92.4768L64.7063 96.3576V109.188L69.7487 112.462C71.0159 113.28 72.6527 113.306 73.9463 112.541L79.3583 109.294C79.9655 108.924 80.3615 108.264 80.3615 107.525V105.994L90.2879 100.133C91.0271 99.7104 91.4759 98.9184 91.4759 98.0472V84.9528C91.4495 84.9528 96.1223 82.26 96.1223 82.26L96.1751 73.7856L85.8527 67.8984L75.6095 73.812H75.5831Z" fill="white"/>
<path d="M93.6409 74.1017L85.7473 69.7193C85.6417 69.6665 85.5361 69.6665 85.4305 69.7193L77.6425 74.2073C77.4313 74.3393 77.4313 74.6297 77.6425 74.7617L85.6681 79.0385C85.7737 79.0913 85.8793 79.0913 85.9585 79.0385L93.6409 74.6561C93.8521 74.5241 93.8521 74.2337 93.6409 74.1017Z" fill="#288DFE"/>
<path d="M83.1602 97.0956L80.7578 95.6172C80.7314 95.6172 80.705 95.6172 80.6786 95.6172L79.9658 95.9868V98.9172C79.9658 98.9172 80.0186 98.9172 80.045 98.9172L83.1866 97.254C83.2394 97.2276 83.2394 97.122 83.1866 97.0956H83.1602Z" fill="#288DFE"/>
<path d="M72.6529 94.3244L77.4313 96.5684C77.6161 96.6476 77.6425 96.938 77.4313 97.0436L71.2273 100.396C71.1481 100.449 71.0689 100.449 70.9897 100.396L66.4489 97.9676C66.2641 97.862 66.2641 97.598 66.4489 97.4924L72.4153 94.3508C72.4945 94.3244 72.5737 94.298 72.6529 94.3508V94.3244Z" fill="#288DFE"/>
<path d="M69.9074 104.54L70.6202 104.936C71.2538 105.28 72.0194 105.28 72.653 104.936L73.6826 104.356C73.8674 104.25 74.0786 104.382 74.0786 104.593V107.761C74.0786 107.867 74.0258 107.946 73.9202 107.999L72.257 108.87C72.1514 108.923 72.0458 108.923 71.9402 108.87L67.4258 106.336C67.1882 106.204 67.1882 105.86 67.4258 105.755L69.881 104.54H69.9074Z" fill="#288DFE"/>
<path d="M94.3798 75.8984L85.9846 80.4392V81.944L94.3798 77.3768V75.8984Z" fill="#288DFE"/>
<path d="M85.9846 87.3827L94.3798 82.7627V81.1523L85.9846 85.9571V87.3827Z" fill="#288DFE"/>
<path d="M94.3798 78.5391L85.9846 83.1855V84.6639L94.3798 79.9119V78.5391Z" fill="#288DFE"/>
<path d="M85.853 93.9305L90.0242 91.5017V90.1289L85.853 92.5049V93.9305Z" fill="#288DFE"/>
<path d="M85.853 96.702L90.0242 94.2732V92.9004L85.853 95.2764V96.702Z" fill="#288DFE"/>
<path d="M85.853 99.7645L90.0242 97.3357V95.9629L85.853 98.3389V99.7645Z" fill="#288DFE"/>
<path d="M71.5439 103.327C71.5439 103.327 71.5439 103.353 71.5439 103.38L78.2759 99.4725V97.9941L71.5439 101.849V103.327Z" fill="#288DFE"/>
<path d="M78.5399 106.76L72.4151 110.192C72.0455 110.403 71.8079 110.799 71.8079 111.221V111.776L78.5399 107.869V106.76Z" fill="#288DFE"/>
<path d="M74.9759 104.491L78.3287 102.538V101.244L74.9495 103.171L74.9759 104.491Z" fill="#288DFE"/>
<path d="M75.055 107.052L78.3286 105.125V103.646L75.0022 105.547L75.055 107.052Z" fill="#288DFE"/>
<path d="M79.9919 101.717L84.1631 99.2885V98.1797L79.9919 100.503V101.717Z" fill="#288DFE"/>
<path d="M79.9919 104.462L84.1631 102.033V100.607L79.9919 102.983V104.462Z" fill="#288DFE"/>
</svg>
